<svg version="1.1" id="Layer_1" xmlns="http://www.w3.org/2000/svg" xmlns:xlink="http://www.w3.org/1999/xlink" x="0px" y="0px"
	 width="100%" viewBox="0 0 251 251" enable-background="new 0 0 251 251" xml:space="preserve">
<path fill="none" opacity="1.000000" stroke="#000000" stroke-linecap="round" stroke-linejoin="round" stroke-width="7.000000"
	d="
M157.000000,137.000000 
	C154.870758,132.977005 156.514709,128.659348 156.108261,124.489449 
	C155.641571,119.701599 156.000000,114.833336 156.000000,110.000000 
	C156.000000,96.500000 155.926468,82.999458 156.025970,69.500191 
	C156.091827,60.565250 155.684631,62.028477 148.499969,62.013271 
	C129.833389,61.973763 111.165436,62.112888 92.500977,61.910049 
	C88.500793,61.866581 87.266327,63.303211 87.477478,67.001289 
	C88.171524,79.156288 87.585075,91.337662 88.022476,103.517151 
	C88.315796,111.684998 88.077545,120.176437 87.500000,128.500000 
"/>
<path fill="none" opacity="1.000000" stroke="#000000" stroke-linecap="round" stroke-linejoin="round" stroke-width="7.000000"
	d="
M57.500004,144.000000 
	C57.333336,145.500000 57.026405,146.999588 57.021999,148.500061 
	C56.983807,161.499954 57.095692,174.501175 56.935741,187.499207 
	C56.893372,190.942200 57.646805,192.590652 61.500469,192.561142 
	C79.499413,192.423325 97.500053,192.522980 115.499954,192.480652 
	C119.110603,192.472168 121.492653,190.218796 120.910706,186.514023 
	C118.896904,173.693970 120.545143,160.828644 120.030083,147.998795 
	C119.843040,143.339630 119.818199,138.657089 120.063385,134.003342 
	C120.229103,130.857895 119.270332,129.459045 115.999901,129.470123 
	C97.666771,129.532166 79.333321,129.510574 61.000015,129.488617 
	C58.248123,129.485321 56.511013,130.263184 56.980282,133.502853 
	C57.460415,136.817520 56.085567,140.324783 58.000000,143.500000 
"/>
<path fill="none" opacity="1.000000" stroke="#000000" stroke-linecap="round" stroke-linejoin="round" stroke-width="6.000000"
	d="
M157.500000,118.000000 
	C168.666672,118.000000 179.835007,118.106796 190.998917,117.931488 
	C194.133896,117.882256 195.540619,118.729683 195.529831,122.000099 
	C195.468338,140.666565 195.505219,159.333328 195.478714,177.999969 
	C195.477768,178.666458 195.163345,179.332489 194.868378,180.500000 
	C186.006088,180.500000 177.002396,180.556503 168.000565,180.451630 
	C166.231735,180.431046 164.656448,179.451736 163.500000,178.000000 
"/>
<path fill="none" opacity="1.000000" stroke="#000000" stroke-linecap="round" stroke-linejoin="round" stroke-width="6.000000"
	d="
M89.000000,103.500000 
	C110.833336,103.500000 132.666672,103.500000 154.500000,103.500000 
"/>
<path fill="none" opacity="1.000000" stroke="#000000" stroke-linecap="round" stroke-linejoin="round" stroke-width="6.000000"
	d="
M163.500000,177.000000 
	C164.825699,175.484711 166.479675,174.745224 168.496246,174.472229 
	C178.164627,173.163269 184.946106,163.419891 184.403778,154.505859 
	C183.769485,144.080261 175.221375,136.499985 165.000000,136.500000 
	C163.833328,136.500000 162.661392,136.427612 161.500900,136.512299 
	C155.928253,136.918976 155.804642,137.738129 156.357742,143.513626 
	C156.862366,148.782669 155.860916,154.179459 156.083191,159.496521 
	C156.321045,165.185654 155.110947,170.939972 157.819611,176.586533 
	C159.173950,179.409790 155.859344,182.322067 155.292282,185.462494 
	C155.022659,186.955704 152.229248,186.496185 150.500000,186.497223 
	C140.833328,186.502975 131.166672,186.500000 121.500000,186.500000 
"/>
<path fill="none" opacity="1.000000" stroke="#000000" stroke-linecap="round" stroke-linejoin="round" stroke-width="6.000000"
	d="
M58.500000,143.500000 
	C78.500000,143.500000 98.500000,143.500000 118.500000,143.500000 
"/>
<path fill="none" opacity="1.000000" stroke="#000000" stroke-linecap="round" stroke-linejoin="round" stroke-width="6.000000"
	d="
M157.500000,129.500000 
	C169.666672,129.500000 181.833328,129.500000 194.000000,129.500000 
"/>
<path fill="none" opacity="1.000000" stroke="#000000" stroke-linecap="round" stroke-linejoin="round" stroke-width="6.000000"
	d="
M171.000000,155.500000 
	C171.166672,154.500000 171.272141,153.485001 171.512863,152.503159 
	C171.998428,150.522736 174.505264,148.925110 172.050079,146.450317 
	C169.294998,143.673233 165.939362,142.918915 162.540909,143.682144 
	C160.913666,144.047623 159.322876,145.020706 157.500000,145.000000 
"/>
<path fill="none" opacity="1.000000" stroke="#000000" stroke-linecap="round" stroke-linejoin="round" stroke-width="6.000000"
	d="
M169.500000,155.500000 
	C173.163483,156.757248 170.601791,161.334610 174.018448,162.757843 
	C169.075775,168.848618 163.402481,168.035461 157.500000,166.000000 
"/>
<path fill="none" opacity="1.000000" stroke="#000000" stroke-linecap="round" stroke-linejoin="round" stroke-width="6.000000"
	d="
M96.500000,116.500000 
	C96.500000,120.500000 96.500000,124.500000 96.500000,128.500000 
"/>
<path fill="none" opacity="1.000000" stroke="#000000" stroke-linecap="round" stroke-linejoin="round" stroke-width="7.000000"
	d="
M69.500000,155.500000 
	C67.602180,155.906326 66.902985,156.964172 66.948372,159.001144 
	C67.089401,165.331329 67.100471,171.668961 66.956024,177.998993 
	C66.887627,180.996078 67.998703,182.074371 71.000435,182.045578 
	C82.666031,181.933655 94.333878,181.938919 105.999626,182.042236 
	C108.976707,182.068619 110.113342,180.979279 110.041359,177.999008 
	C109.900536,172.169067 109.757309,166.319717 110.083519,160.504684 
	C110.308914,156.486816 108.692802,155.408768 104.999443,155.450897 
	C93.334297,155.583969 81.666664,155.500000 70.000000,155.500000 
"/>
<path fill="none" opacity="1.000000" stroke="#000000" stroke-linecap="round" stroke-linejoin="round" stroke-width="7.000000"
	d="
M44.500000,42.500000 
	C41.055084,43.146252 42.019382,45.853012 42.018261,48.000011 
	C41.994209,94.000000 42.000000,140.000000 42.000000,186.000000 
	C42.000000,192.666672 42.218895,199.343384 41.913475,205.996033 
	C41.744816,209.669769 43.266956,210.724655 46.500439,210.506500 
	C47.164085,210.461731 47.833332,210.500000 48.500000,210.500000 
	C100.166664,210.500000 151.833328,210.500488 203.500000,210.499359 
	C210.000000,210.499222 210.000000,210.495270 210.000000,204.000000 
	C210.000000,152.166672 210.000000,100.333336 210.000000,48.500000 
	C210.000000,42.520622 210.000000,42.503246 204.000000,42.502716 
	C151.000000,42.498032 98.000000,42.500000 45.000000,42.500000 
"/>
</svg>