<?xml version="1.0" encoding="UTF-8"?>
<svg id="Layer_2" data-name="Layer 2" xmlns="http://www.w3.org/2000/svg" viewBox="0 0 85.99 33.96" style="width: 100%; max-width: 400px; height: auto;">
  <defs>
    <style>
      .cls-1 {
        letter-spacing: -.02em;
      }

      .cls-2 {
        fill: #231f20;
        font-family: SofiaPro-Medium, 'Sofia Pro';
        font-size: 7.09px;
        font-weight: 500;
      }

      .cls-3 {
        fill: #ee3124;
      }

      .cls-4 {
        letter-spacing: 0em;
      }
    </style>
  </defs>
  <g id="Layer_1-2" data-name="Layer 1">
    <g>
      <path class="cls-3" d="M3.3,10.67q4.64-.24,5.43-.24c6.8,0,10.41,1.89,10.41,5.46,0,1.68-.82,3.02-2.44,3.85-1.06.58-1.92.86-4.12,1.34,2.23.31,3.19.58,4.47,1.27,2.03,1.13,3.19,2.99,3.19,5.15,0,2.34-1.34,4.29-3.57,5.29-1.17.52-3.13.79-5.6.79H0v-.48c1.03-.45,1.37-1,1.37-2.27V13.42c0-1.27-.34-1.82-1.37-2.27v-.48h3.3ZM8.55,20.66c3.68,0,5.53-1.58,5.53-4.74,0-2.85-1.79-4.6-4.74-4.6-1.72,0-2.37.55-2.37,2.03v7.32h1.58ZM6.97,30.8c0,1.37.69,1.92,2.44,1.92.93,0,1.79-.14,2.37-.38,1.68-.72,2.89-2.85,2.89-5.19,0-3.54-2.06-5.36-5.98-5.36h-1.72v9Z"/>
      <path class="cls-3" d="M38.37,32.65c-1.31,1-2.06,1.27-3.37,1.27-1.85,0-2.99-.79-3.33-2.34-1.06.86-1.2.96-1.65,1.27-1,.69-2.27,1.06-3.47,1.06-2.44,0-4.19-1.48-4.19-3.57,0-1.61,1.03-2.95,3.23-4.12,1.48-.82,2.58-1.27,6.08-2.64v-3.57c0-1.03-.52-1.61-1.44-1.61-.86,0-1.31.41-1.61,1.41-.52,1.82-1.34,2.64-2.58,2.64-1.13,0-2.03-.76-2.03-1.68,0-1.96,2.82-3.33,6.84-3.33s5.84,1.34,5.84,3.85v10.3c0,.58.14.82.52.82.21,0,.34-.1.58-.34l.58.58ZM31.68,24.68c-1.79.76-2.68,1.24-3.3,1.85-.65.65-1.06,1.68-1.06,2.75,0,1.44.72,2.4,1.82,2.4.72,0,1.31-.27,2.54-1.1v-5.91Z"/>
      <path class="cls-3" d="M56.12,31.24c.58,1,1,1.48,1.68,1.82v.52h-7.73v-.52c.58-.24.79-.45.79-.86,0-.24-.1-.58-.31-.96l-2.71-5.26-1.17,1.24v4.02c0,1.06.21,1.48.93,1.89v.45h-6.9v-.45c.72-.41.93-.82.93-1.89V14.24c0-1-.24-1.37-.96-1.51v-.76c2.64-.62,3.02-.76,5.29-1.85h.72v15.56l5.08-5.46c.24-.24.41-.58.41-.82,0-.48-.41-.72-1.61-1v-.45h5.8v.45c-1.17.34-1.96.82-2.92,1.82l-2.13,2.3,4.81,8.72Z"/>
      <path class="cls-3" d="M71.9,30.04c-2.61,2.92-4.36,3.92-6.9,3.92-4.09,0-6.9-3.37-6.9-8.28s3.02-8.24,7.14-8.24c2.3,0,4.5,1.27,5.6,3.23.65,1.2.89,2.27.89,4.26,0,.03,0,.34-.03.62h-8.55c.1,1.89.38,2.82,1.03,3.74.72,1.1,2.13,1.75,3.61,1.75,1.13,0,1.99-.34,3.5-1.41l.62.41ZM66.09,24.34c1.31,0,1.65-.48,1.65-2.23,0-2.27-.86-3.68-2.23-3.68-1.72,0-2.51,1.89-2.51,5.91h3.09Z"/>
      <path class="cls-3" d="M80.15,31.24c0,1.06.21,1.48.93,1.89v.45h-6.9v-.45c.72-.41.93-.82.93-1.89v-9.82c0-1-.21-1.34-.93-1.51v-.76c2.61-.62,2.99-.76,5.22-1.82h.76v2.71c1.2-1.85,2.3-2.61,3.74-2.61,1.2,0,2.1.82,2.1,1.92s-.79,1.92-1.89,1.92q-.65,0-1.68-.72c-.24-.17-.52-.24-.76-.24-.58,0-1.06.27-1.51.86v10.06Z"/>
    </g>
    <text class="cls-2" transform="translate(21.06 5.99) scale(1.26 1)"><tspan class="cls-1" x="0" y="0">R</tspan><tspan x="4.26" y="0">en</tspan><tspan class="cls-4" x="12.17" y="0">t</tspan><tspan x="14.51" y="0">al hub</tspan></text>
  </g>
</svg>