<svg version="1.1" id="Layer_1" xmlns="http://www.w3.org/2000/svg" xmlns:xlink="http://www.w3.org/1999/xlink" x="0px" y="0px"
	 width="100%" viewBox="0 0 251 251" enable-background="new 0 0 251 251" xml:space="preserve">
<path fill="none" opacity="1.000000" stroke="#000000" stroke-linecap="round" stroke-linejoin="round" stroke-width="4.000000"
	d="
M158.500000,166.500000 
	C154.166672,166.500000 149.751846,167.034180 145.517044,166.388245 
	C136.834808,165.063934 131.101044,167.955109 128.440735,177.440750 
	C133.823807,182.823822 139.714432,188.610947 145.463089,194.535812 
	C146.901382,196.018219 148.482971,195.455261 150.000229,195.464890 
	C160.499802,195.531540 171.000000,195.500000 181.500000,195.500000 
"/>
<path fill="none" opacity="1.000000" stroke="#000000" stroke-linecap="round" stroke-linejoin="round" stroke-width="4.000000"
	d="
M124.500000,166.000000 
	C119.582733,167.856628 118.434380,173.073563 115.794304,176.713455 
	C113.448303,179.947906 111.293388,180.538940 107.999886,180.521072 
	C97.500191,180.464172 87.000000,180.500000 76.500000,180.500000 
"/>
<path fill="none" opacity="1.000000" stroke="#000000" stroke-linecap="round" stroke-linejoin="round" stroke-width="4.000000"
	d="
M118.500000,194.500000 
	C115.564636,188.704071 110.928047,186.975830 104.491592,187.358521 
	C95.191132,187.911484 85.833336,187.500000 76.500000,187.500000 
"/>
<path fill="none" opacity="1.000000" stroke="#000000" stroke-linecap="round" stroke-linejoin="round" stroke-width="4.000000"
	d="
M103.500000,146.000000 
	C108.299957,147.134491 113.175804,146.389877 118.000572,146.427979 
	C139.165924,146.595108 160.333328,146.500000 181.500000,146.500000 
"/>
<path fill="none" opacity="1.000000" stroke="#000000" stroke-linecap="round" stroke-linejoin="round" stroke-width="4.000000"
	d="
M175.000015,162.500000 
	C174.833344,161.666672 174.694031,160.826736 174.494965,160.001221 
	C173.857925,157.359512 176.209991,153.771042 172.939911,152.118958 
	C169.589371,150.426208 165.653519,151.537964 162.002625,151.618591 
	C160.174347,151.658981 159.410675,153.427582 159.453049,155.500961 
	C159.582428,161.831650 159.583008,168.168289 159.460190,174.499222 
	C159.409195,177.127960 160.397095,177.916992 162.996353,178.064301 
	C174.643967,178.724365 175.282288,178.096176 174.528305,165.498306 
	C174.479218,164.678284 174.071182,163.680908 175.000000,163.000000 
"/>
<path fill="none" opacity="1.000000" stroke="#000000" stroke-linecap="round" stroke-linejoin="round" stroke-width="4.000000"
	d="
M77.000000,128.000000 
	C75.442123,132.785355 74.158005,137.256348 76.342819,142.564697 
	C80.390648,152.399490 91.605896,153.503311 98.450768,149.417526 
	C103.815247,146.215393 107.813248,136.975632 104.011375,130.992767 
	C102.644615,128.841965 103.034622,126.376007 103.000000,124.000000 
"/>
<path fill="none" opacity="1.000000" stroke="#000000" stroke-linecap="round" stroke-linejoin="round" stroke-width="4.000000"
	d="
M121.000000,167.500000 
	C119.387482,165.952164 117.366379,166.526093 115.499939,166.520508 
	C102.500053,166.481674 89.500000,166.500000 76.500000,166.500000 
"/>
<path fill="none" opacity="1.000000" stroke="#000000" stroke-linecap="round" stroke-linejoin="round" stroke-width="4.000000"
	d="
M119.500000,161.500000 
	C119.500000,157.992065 119.500000,154.484131 119.500000,150.750000 
	C116.000000,150.750000 113.000000,150.750000 109.500000,150.750000 
	C109.500000,154.484131 109.500000,157.992065 109.500000,161.500000 
"/>
<path fill="none" opacity="1.000000" stroke="#000000" stroke-linecap="round" stroke-linejoin="round" stroke-width="5.000000"
	d="
M151.500000,98.500000 
	C161.317291,99.612785 171.168930,98.699898 181.000000,99.000000 
"/>
<path fill="none" opacity="1.000000" stroke="#000000" stroke-linecap="round" stroke-linejoin="round" stroke-width="4.000000"
	d="
M84.500000,118.500000 
	C88.423508,117.116524 91.861069,116.689140 95.652718,119.814735 
	C98.100334,121.832382 101.140526,125.116020 105.594055,122.140785 
	C107.596970,120.802719 110.001564,123.270836 111.333260,124.659859 
	C112.527290,125.905289 114.464577,126.660316 114.905128,126.360565 
	C118.446884,123.950752 122.478813,126.566879 126.250000,125.009277 
	C126.250000,122.666664 126.250000,120.333336 126.250000,117.408791 
	C123.416664,117.682243 120.833336,117.103180 118.000000,118.087540 
	C118.000000,120.164688 118.000000,122.332344 118.000000,124.500000 
"/>
<path fill="none" opacity="1.000000" stroke="#000000" stroke-linecap="round" stroke-linejoin="round" stroke-width="5.000000"
	d="
M105.500000,98.500000 
	C96.017204,99.647469 86.497299,98.679527 77.000000,99.000000 
"/>
<path fill="none" opacity="1.000000" stroke="#000000" stroke-linecap="round" stroke-linejoin="round" stroke-width="4.000000"
	d="
M128.500000,56.500000 
	C128.620804,58.809929 128.445908,60.756733 127.172859,63.094147 
	C123.043671,70.675568 119.666664,78.666664 115.999992,86.500000 
"/>
<path fill="none" opacity="1.000000" stroke="#000000" stroke-linecap="round" stroke-linejoin="round" stroke-width="4.000000"
	d="
M129.000000,61.499996 
	C132.500000,68.333328 135.988663,75.172531 139.516479,81.991470 
	C139.894135,82.721436 140.500000,83.333336 141.000000,84.000000 
"/>
<path fill="none" opacity="1.000000" stroke="#000000" stroke-linecap="round" stroke-linejoin="round" stroke-width="4.000000"
	d="
M114.000008,90.000008 
	C112.333336,91.166672 110.553169,92.203186 109.028603,93.532791 
	C107.102524,95.212585 106.302124,96.889946 106.766365,100.034492 
	C107.809769,107.101944 109.004730,114.387711 106.500000,121.500000 
"/>
<path fill="none" opacity="1.000000" stroke="#000000" stroke-linecap="round" stroke-linejoin="round" stroke-width="4.000000"
	d="
M146.500000,161.500000 
	C146.500000,157.992065 146.500000,154.484131 146.500000,150.285767 
	C142.480240,151.125824 138.755844,149.103088 135.500000,152.000000 
"/>
<path fill="none" opacity="1.000000" stroke="#000000" stroke-linecap="round" stroke-linejoin="round" stroke-width="4.000000"
	d="
M133.500000,152.000000 
	C130.598526,149.147369 127.179474,151.211655 123.500000,150.147446 
	C123.500000,154.484131 123.500000,157.992065 123.500000,161.500000 
"/>
<path fill="none" opacity="1.000000" stroke="#000000" stroke-linecap="round" stroke-linejoin="round" stroke-width="5.000000"
	d="
M144.500000,91.000000 
	C149.148346,93.259155 151.237350,96.265419 150.231918,102.040375 
	C149.307419,107.350410 150.333328,113.000000 150.499985,118.500000 
"/>
<path fill="none" opacity="1.000000" stroke="#000000" stroke-linecap="round" stroke-linejoin="round" stroke-width="5.000000"
	d="
M128.500000,84.500000 
	C125.451088,87.281548 124.880455,92.687141 119.500000,93.000000 
	C120.253036,95.901611 117.621910,98.059448 117.905533,101.009087 
	C118.286621,104.972443 118.000000,109.000000 118.000000,113.000000 
"/>
<path fill="none" opacity="1.000000" stroke="#000000" stroke-linecap="round" stroke-linejoin="round" stroke-width="4.000000"
	d="
M112.500000,126.500000 
	C112.500000,132.833328 112.500000,139.166672 112.500000,145.500000 
"/>
<path fill="none" opacity="1.000000" stroke="#000000" stroke-linecap="round" stroke-linejoin="round" stroke-width="4.000000"
	d="
M133.500000,161.000000 
	C132.053589,162.918701 129.959427,162.494034 128.000000,162.495010 
	C110.833336,162.503616 93.666664,162.500000 76.500000,162.500000 
"/>
<path fill="none" opacity="1.000000" stroke="#000000" stroke-linecap="round" stroke-linejoin="round" stroke-width="4.000000"
	d="
M138.000000,95.500000 
	C140.861801,101.303185 138.948502,107.504295 139.500000,113.500000 
"/>
<path fill="none" opacity="1.000000" stroke="#000000" stroke-linecap="round" stroke-linejoin="round" stroke-width="5.000000"
	d="
M157.500000,123.000000 
	C154.719269,121.967888 152.434326,120.109467 150.180466,118.353394 
	C145.313538,120.323441 143.995697,123.360275 144.804855,128.530548 
	C145.670502,134.061737 145.000000,139.833328 145.000000,145.500000 
"/>
<path fill="none" opacity="1.000000" stroke="#000000" stroke-linecap="round" stroke-linejoin="round" stroke-width="5.000000"
	d="
M167.000000,160.000000 
	C167.000000,170.000000 167.000000,180.000000 167.000000,190.000000 
"/>
<path fill="none" opacity="1.000000" stroke="#000000" stroke-linecap="round" stroke-linejoin="round" stroke-width="4.000000"
	d="
M181.500000,126.500000 
	C168.331955,126.558289 155.156830,126.001869 141.996628,126.953262 
	C141.523193,126.987488 141.000000,126.333336 140.500000,126.000008 
"/>
<path fill="none" opacity="1.000000" stroke="#000000" stroke-linecap="round" stroke-linejoin="round" stroke-width="4.000000"
	d="
M121.000000,95.500000 
	C122.936638,96.294594 122.485085,98.000603 122.492050,99.500038 
	C122.513748,104.166603 122.500000,108.833336 122.500000,113.500000 
"/>
<path fill="none" opacity="1.000000" stroke="#000000" stroke-linecap="round" stroke-linejoin="round" stroke-width="4.000000"
	d="
M134.500000,98.000000 
	C134.500000,103.166664 134.500000,108.333336 134.500000,113.500000 
"/>
<path fill="none" opacity="1.000000" stroke="#000000" stroke-linecap="round" stroke-linejoin="round" stroke-width="6.000000"
	d="
M91.500000,105.500000 
	C91.500000,109.333336 91.500000,113.166664 91.500000,117.000000 
"/>
<path fill="none" opacity="1.000000" stroke="#000000" stroke-linecap="round" stroke-linejoin="round" stroke-width="4.000000"
	d="
M135.500000,161.000000 
	C136.773438,162.810745 138.687347,162.496674 140.500000,162.498154 
	C146.500000,162.503052 152.500000,162.500000 158.500000,162.500000 
"/>
<path fill="none" opacity="1.000000" stroke="#000000" stroke-linecap="round" stroke-linejoin="round" stroke-width="4.000000"
	d="
M144.500000,79.500000 
	C144.216141,81.824966 144.645599,84.135345 144.134659,86.528748 
	C143.659576,88.754196 144.414001,90.748970 141.050232,91.681244 
	C137.741745,92.598198 134.537674,93.320251 132.646133,90.405182 
	C130.562485,87.194077 127.556244,83.994698 128.500000,79.500000 
"/>
<path fill="none" opacity="1.000000" stroke="#000000" stroke-linecap="round" stroke-linejoin="round" stroke-width="4.000000"
	d="
M123.000000,97.000000 
	C127.374969,97.207977 131.867508,98.944183 136.000000,96.000000 
"/>
<path fill="none" opacity="1.000000" stroke="#000000" stroke-linecap="round" stroke-linejoin="round" stroke-width="5.000000"
	d="
M83.000000,137.500000 
	C81.621613,141.382889 85.443596,143.116211 87.182442,144.209961 
	C90.046043,146.011169 89.974174,148.028900 89.992500,150.500061 
	C90.020935,154.333176 90.000000,158.166672 90.000000,162.000000 
"/>
<path fill="none" opacity="1.000000" stroke="#000000" stroke-linecap="round" stroke-linejoin="round" stroke-width="4.000000"
	d="
M165.500000,105.500000 
	C165.561157,109.557335 167.558823,113.756500 162.160873,116.786583 
	C160.026489,117.984695 161.823654,122.508720 161.500000,125.500000 
"/>
<path fill="none" opacity="1.000000" stroke="#000000" stroke-linecap="round" stroke-linejoin="round" stroke-width="4.000000"
	d="
M88.500000,119.999992 
	C87.500000,120.833328 86.619514,121.924576 85.478394,122.453362 
	C81.479942,124.306267 79.126778,122.634811 79.006119,117.999840 
	C78.967102,116.500854 79.000000,115.000000 79.000000,113.500000 
"/>
<path fill="none" opacity="1.000000" stroke="#000000" stroke-linecap="round" stroke-linejoin="round" stroke-width="4.000000"
	d="
M136.500000,84.500000 
	C135.721344,88.073479 139.048447,91.353683 137.250000,95.000000 
"/>
<path fill="none" opacity="1.000000" stroke="#000000" stroke-linecap="round" stroke-linejoin="round" stroke-width="4.000000"
	d="
M166.000000,114.500000 
	C168.668777,115.377449 169.834991,117.138756 169.535416,120.003700 
	C169.345795,121.817215 169.500000,123.666664 169.500000,125.500000 
"/>
<path fill="none" opacity="1.000000" stroke="#000000" stroke-linecap="round" stroke-linejoin="round" stroke-width="5.000000"
	d="
M90.000000,134.000000 
	C91.272728,137.812668 89.929031,141.387482 89.000000,145.000000 
"/>
<path fill="none" opacity="1.000000" stroke="#000000" stroke-linecap="round" stroke-linejoin="round" stroke-width="3.000000"
	d="
M178.000000,113.500000 
	C178.000000,115.666664 178.000000,117.833336 178.000000,120.000000 
"/>
<path fill="none" opacity="1.000000" stroke="#000000" stroke-linecap="round" stroke-linejoin="round" stroke-width="4.000000"
	d="
M132.000000,117.500000 
	C128.998367,119.644226 131.173660,122.478714 130.161362,125.648659 
	C133.583328,125.317368 136.166672,125.896606 138.875000,124.956635 
	C138.875000,122.666664 138.875000,120.333336 138.875000,118.022049 
	C136.719696,117.170502 134.588486,117.602348 132.500000,117.500000 
"/>
<path fill="none" opacity="1.000000" stroke="#000000" stroke-linecap="round" stroke-linejoin="round" stroke-width="6.000000"
	d="
M45.500000,42.500000 
	C42.055084,43.146252 43.019382,45.853012 43.018261,48.000011 
	C42.994209,94.000000 43.000000,140.000000 43.000000,186.000000 
	C43.000000,192.666672 43.218895,199.343384 42.913475,205.996033 
	C42.744816,209.669769 44.266956,210.724640 47.500439,210.506485 
	C48.164085,210.461716 48.833332,210.500000 49.500000,210.500000 
	C101.166664,210.500000 152.833328,210.501511 204.500000,210.493820 
	C206.344040,210.493546 208.219696,210.749954 210.250000,209.844513 
	C210.250000,154.333328 210.250000,98.666664 210.250000,42.500000 
	C155.334351,42.500000 100.667175,42.500000 46.000000,42.500000 
"/>
<path fill="none" opacity="1.000000" stroke="#000000" stroke-linecap="round" stroke-linejoin="round" stroke-width="4.000000"
	d="
M120.000000,130.500000 
	C119.067665,130.901001 117.842285,130.751099 117.946793,132.503174 
	C118.135078,135.659592 118.000000,138.835312 118.000000,141.912460 
	C120.833336,142.896820 123.416664,142.317764 126.250000,142.591202 
	C126.250000,138.333328 126.250000,134.666672 126.250000,130.500000 
	C124.178146,130.500000 122.339073,130.500000 120.500000,130.500000 
"/>
<path fill="none" opacity="1.000000" stroke="#000000" stroke-linecap="round" stroke-linejoin="round" stroke-width="4.000000"
	d="
M132.000000,130.500000 
	C128.863312,134.089569 131.387009,138.171341 130.091125,142.655457 
	C133.583328,142.317368 136.166672,142.896606 138.875000,141.956635 
	C138.875000,138.333328 138.875000,134.666672 138.875000,131.022049 
	C136.719696,130.170502 134.588486,130.602341 132.500000,130.500000 
"/>
</svg>