<svg version="1.1" id="Layer_1" xmlns="http://www.w3.org/2000/svg" xmlns:xlink="http://www.w3.org/1999/xlink" x="0px" y="0px"
	 width="100%" viewBox="0 0 251 251" enable-background="new 0 0 251 251" xml:space="preserve">
<path fill="none" opacity="1.000000" stroke="#000000" stroke-linecap="round" stroke-linejoin="round" stroke-width="6.000000"
	d="
M106.000000,103.000000 
	C100.941422,105.008713 95.666779,103.722237 90.497879,103.952316 
	C85.067474,104.194046 85.028603,104.060097 85.000221,109.500000 
	C84.998489,109.833328 85.000000,110.166664 85.000000,110.500000 
	C85.000000,117.685226 85.000000,117.685226 91.996948,119.000168 
	C92.926949,121.957764 92.454140,124.999283 92.476509,128.000168 
	C92.542358,136.833008 92.815338,145.681473 92.401482,154.495377 
	C92.062721,161.709869 98.218010,168.776047 106.501236,168.544296 
	C113.995377,168.334625 121.514778,168.210648 128.995270,168.592667 
	C134.852203,168.891769 140.666885,168.484955 146.499954,168.473587 
	C154.022934,168.458908 159.495178,162.909637 159.498749,155.500000 
	C159.503723,145.166672 159.492874,134.833313 159.506592,124.500008 
	C159.509033,122.655907 159.250046,120.780312 160.110458,118.850998 
	C162.329376,118.621231 164.670624,118.378792 166.980103,118.139641 
	C167.171555,117.167587 167.440506,116.339241 167.484192,115.499176 
	C168.082031,104.000389 168.074387,104.000000 156.500000,104.000000 
	C141.166672,104.000000 125.833328,104.005058 110.500008,103.991516 
	C109.099548,103.990280 107.583595,104.332298 106.500000,103.000000 
"/>
<path fill="none" opacity="1.000000" stroke="#000000" stroke-linecap="round" stroke-linejoin="round" stroke-width="6.000000"
	d="
M114.500000,103.000000 
	C114.500000,91.000000 114.393700,78.998474 114.566307,67.000954 
	C114.616547,63.508453 113.154861,61.231556 109.996002,61.143631 
	C106.472710,61.045567 105.851593,64.007843 105.995316,67.000229 
	C106.027260,67.665352 106.000000,68.333336 106.000000,69.000000 
	C106.000000,80.166664 106.000000,91.333336 106.000000,102.500000 
"/>
<path fill="none" opacity="1.000000" stroke="#000000" stroke-linecap="round" stroke-linejoin="round" stroke-width="6.000000"
	d="
M146.500000,103.000000 
	C146.500000,91.166664 146.378189,79.331322 146.573685,67.501221 
	C146.632904,63.917809 145.488800,61.166397 142.000473,61.175785 
	C138.542801,61.185093 137.415421,64.050369 137.451935,67.500511 
	C137.577133,79.332520 137.500000,91.166664 137.500000,103.000000 
"/>
<path fill="none" opacity="1.000000" stroke="#000000" stroke-linecap="round" stroke-linejoin="round" stroke-width="6.000000"
	d="
M144.500000,137.500000 
	C132.166672,137.500000 119.833336,137.500000 107.500000,137.500000 
"/>
<path fill="none" opacity="1.000000" stroke="#000000" stroke-linecap="round" stroke-linejoin="round" stroke-width="6.000000"
	d="
M144.500000,147.500000 
	C132.166672,147.500000 119.833336,147.500000 107.500000,147.500000 
"/>
<path fill="none" opacity="1.000000" stroke="#000000" stroke-linecap="round" stroke-linejoin="round" stroke-width="7.000000"
	d="
M144.000000,127.000000 
	C132.000000,127.000000 120.000000,127.000000 108.000000,127.000000 
"/>
<path fill="none" opacity="1.000000" stroke="#000000" stroke-linecap="round" stroke-linejoin="round" stroke-width="7.000000"
	d="
M116.500000,170.000000 
	C116.500000,176.936035 118.957703,178.652740 127.485954,177.404053 
	C128.096069,177.314713 128.813644,177.056595 129.500504,177.006882 
	C135.999664,176.536453 136.000000,176.541092 136.000000,170.000000 
"/>
<path fill="none" opacity="1.000000" stroke="#000000" stroke-linecap="round" stroke-linejoin="round" stroke-width="6.000000"
	d="
M126.500000,178.500000 
	C126.500000,182.500000 126.500000,186.500000 126.500000,190.500000 
"/>
<path fill="none" opacity="1.000000" stroke="#000000" stroke-linecap="round" stroke-linejoin="round" stroke-width="7.000000"
	d="
M44.500000,43.000000 
	C41.982677,43.926403 42.511543,46.101597 42.511047,48.000004 
	C42.497276,100.833336 42.497658,153.666672 42.515186,206.500000 
	C42.515572,207.670700 42.742447,208.841339 42.850986,209.889542 
	C44.780308,210.749954 46.655949,210.493561 48.500000,210.493835 
	C100.166664,210.501526 151.833328,210.500488 203.500000,210.499359 
	C210.000000,210.499222 210.000000,210.495270 210.000000,204.000000 
	C210.000000,152.333328 210.000793,100.666664 209.998932,49.000000 
	C209.998718,43.008091 209.991898,43.001278 204.000000,43.001068 
	C151.000000,42.999229 98.000000,43.000000 45.000000,43.000000 
"/>
</svg>