<svg version="1.1" id="Layer_1" xmlns="http://www.w3.org/2000/svg" xmlns:xlink="http://www.w3.org/1999/xlink" x="0px" y="0px"
	 width="100%" viewBox="0 0 251 251" enable-background="new 0 0 251 251" xml:space="preserve">
<path fill="none" opacity="1.000000" stroke="#000000" stroke-linecap="round" stroke-linejoin="round" stroke-width="6.000000"
	d="
M169.500000,185.500000 
	C143.915878,181.655441 118.161499,184.337646 92.501923,183.444672 
	C85.695541,183.207840 79.191330,185.079941 72.500000,185.500000 
"/>
<path fill="none" opacity="1.000000" stroke="#000000" stroke-linecap="round" stroke-linejoin="round" stroke-width="6.000000"
	d="
M142.500000,154.500000 
	C142.070404,145.885269 136.947449,141.292297 128.000000,141.500015 
	C121.261467,141.656464 116.021210,147.433975 115.414322,154.492630 
	C114.859474,160.945984 122.441017,168.679337 128.500854,168.535812 
	C136.930984,168.336151 142.254959,162.834671 142.500000,155.500000 
"/>
<path fill="none" opacity="1.000000" stroke="#000000" stroke-linecap="round" stroke-linejoin="round" stroke-width="6.000000"
	d="
M94.000000,140.500000 
	C90.320152,135.087585 81.831894,133.627716 75.016388,137.528641 
	C62.584106,144.644409 62.061401,162.246262 73.976303,169.538712 
	C75.977974,170.763824 78.171097,171.788055 79.546211,173.970886 
	C80.869133,176.070877 83.171822,174.871674 85.002220,174.943283 
	C90.140968,175.144348 95.158928,174.643906 97.460648,168.983994 
	C98.644875,166.071976 101.698166,167.199173 103.500000,165.750000 
"/>
<path fill="none" opacity="1.000000" stroke="#000000" stroke-linecap="round" stroke-linejoin="round" stroke-width="7.000000"
	d="
M95.500000,174.000000 
	C97.806129,176.493744 100.686623,177.078613 104.000443,177.048431 
	C116.999359,176.930038 130.011993,177.323013 142.994110,176.841232 
	C148.196579,176.648163 153.333160,177.034668 158.500046,177.007965 
	C164.921997,176.974747 165.564453,177.899261 163.500000,184.000000 
"/>
<path fill="none" opacity="1.000000" stroke="#000000" stroke-linecap="round" stroke-linejoin="round" stroke-width="6.000000"
	d="
M190.500000,63.500000 
	C190.678345,65.781670 190.366638,67.741661 188.543152,69.543671 
	C182.759781,75.258896 177.017807,81.033577 171.602020,87.091217 
	C170.203812,88.655106 168.361588,88.328598 166.801437,89.787682 
	C161.790115,94.474304 161.337296,100.761330 159.588882,106.526955 
	C156.281448,117.433723 153.491623,128.497726 150.512146,139.503281 
	C150.192047,140.685608 149.355042,140.543411 148.500000,140.500000 
"/>
<path fill="none" opacity="1.000000" stroke="#000000" stroke-linecap="round" stroke-linejoin="round" stroke-width="6.000000"
	d="
M110.000000,137.000000 
	C106.539497,138.814606 102.842964,140.140457 98.994347,140.423019 
	C93.202393,140.848221 88.367599,143.963699 83.061562,145.689285 
	C79.834030,146.738937 76.716156,149.001434 76.421204,153.494827 
	C75.996109,159.970840 79.479256,162.422974 88.017426,163.337296 
	C91.478943,163.707977 94.195976,164.547867 96.500000,167.000000 
"/>
<path fill="none" opacity="1.000000" stroke="#000000" stroke-linecap="round" stroke-linejoin="round" stroke-width="6.000000"
	d="
M112.500000,138.500000 
	C108.194344,135.326416 108.851768,130.692261 109.615280,126.521103 
	C110.856583,119.739754 107.494339,114.091759 105.896027,108.027405 
	C105.405296,106.165466 101.172569,104.544067 98.499847,104.513390 
	C94.167084,104.463669 89.833336,104.500000 85.500000,104.500000 
"/>
<path fill="none" opacity="1.000000" stroke="#000000" stroke-linecap="round" stroke-linejoin="round" stroke-width="6.000000"
	d="
M111.000000,124.000000 
	C116.471169,126.169594 115.274437,132.228806 118.121094,136.148499 
	C126.166664,132.858521 134.333328,135.092743 142.500000,136.000000 
"/>
<path fill="none" opacity="1.000000" stroke="#000000" stroke-linecap="round" stroke-linejoin="round" stroke-width="6.000000"
	d="
M150.500000,141.000000 
	C157.648026,151.500000 158.477356,161.986725 150.535233,172.526550 
	C149.933868,173.324585 149.833328,174.500000 149.499985,175.500000 
"/>
<path fill="none" opacity="1.000000" stroke="#000000" stroke-linecap="round" stroke-linejoin="round" stroke-width="6.000000"
	d="
M118.000000,94.250000 
	C110.805664,94.190712 103.719475,95.991615 96.500000,95.500000 
"/>
<path fill="none" opacity="1.000000" stroke="#000000" stroke-linecap="round" stroke-linejoin="round" stroke-width="8.000000"
	d="
M166.500000,88.500000 
	C159.131119,85.731697 156.429703,86.883926 154.066849,94.022133 
	C153.806412,94.808907 153.600159,95.466751 153.000000,96.000000 
"/>
<path fill="none" opacity="1.000000" stroke="#000000" stroke-linecap="round" stroke-linejoin="round" stroke-width="6.000000"
	d="
M152.000000,96.000000 
	C155.176987,99.931358 153.034302,107.825562 148.504135,109.015732 
	C146.645813,109.503952 144.769562,110.020714 143.016052,110.786736 
	C140.796661,111.756279 140.052521,113.733536 140.540512,115.991241 
	C140.970734,117.981758 141.774139,119.858818 144.500000,118.750000 
"/>
<path fill="none" opacity="1.000000" stroke="#000000" stroke-linecap="round" stroke-linejoin="round" stroke-width="5.000000"
	d="
M128.750000,153.500000 
	C129.544235,155.763565 131.490295,154.944122 133.000504,154.966431 
	C138.665924,155.050217 144.333328,155.000000 150.000000,155.000000 
"/>
<path fill="none" opacity="1.000000" stroke="#000000" stroke-linecap="round" stroke-linejoin="round" stroke-width="6.000000"
	d="
M147.000000,126.250000 
	C144.643433,129.826706 143.824036,133.959396 142.750000,138.000000 
"/>
<path fill="none" opacity="1.000000" stroke="#000000" stroke-linecap="round" stroke-linejoin="round" stroke-width="7.000000"
	d="
M44.500000,42.500000 
	C41.055084,43.146252 42.019382,45.853012 42.018261,48.000011 
	C41.994209,94.000000 42.000000,140.000000 42.000000,186.000000 
	C42.000000,192.666672 42.218895,199.343384 41.913475,205.996033 
	C41.744816,209.669769 43.266956,210.724655 46.500439,210.506500 
	C47.164085,210.461731 47.833332,210.500000 48.500000,210.500000 
	C100.166664,210.500000 151.833328,210.500488 203.500000,210.499359 
	C210.000000,210.499222 210.000000,210.495270 210.000000,204.000000 
	C210.000000,152.166672 210.000000,100.333336 210.000000,48.500000 
	C210.000000,42.520622 210.000000,42.503246 204.000000,42.502716 
	C151.000000,42.498032 98.000000,42.500000 45.000000,42.500000 
"/>
</svg>