<svg version="1.1" id="Layer_1" xmlns="http://www.w3.org/2000/svg" xmlns:xlink="http://www.w3.org/1999/xlink" x="0px" y="0px"
	 width="100%" viewBox="0 0 251 251" enable-background="new 0 0 251 251" xml:space="preserve">
<path fill="none" opacity="1.000000" stroke="#000000" stroke-linecap="round" stroke-linejoin="round" stroke-width="6.000000"
	d="
M154.000000,88.000000 
	C147.748398,81.407372 139.441223,79.500900 130.990479,78.588097 
	C116.729912,77.047760 103.993286,81.641495 93.616959,91.127930 
	C82.264595,101.506691 76.787323,115.057335 78.126328,130.489044 
	C79.624496,147.755127 87.682610,161.321533 103.536636,169.428345 
	C105.482986,170.423584 105.365402,172.042465 106.000000,173.500000 
"/>
<path fill="none" opacity="1.000000" stroke="#000000" stroke-linecap="round" stroke-linejoin="round" stroke-width="6.000000"
	d="
M146.000000,97.500000 
	C123.602478,83.135063 96.935371,96.874809 92.235008,118.996819 
	C89.281975,132.895157 93.859200,146.621490 105.513596,155.482117 
	C106.942329,156.568375 108.556892,157.410217 110.165924,158.415665 
	C109.002853,162.624435 107.211143,166.403397 105.000000,170.000000 
"/>
<path fill="none" opacity="1.000000" stroke="#000000" stroke-linecap="round" stroke-linejoin="round" stroke-width="6.000000"
	d="
M161.000000,117.500000 
	C163.247818,132.714111 160.641449,146.153717 146.988022,155.482468 
	C144.601135,157.113297 144.385376,159.407425 145.596222,161.442764 
	C147.006790,163.813828 147.642288,166.718048 150.054306,168.482513 
	C168.775558,162.453049 181.806076,130.169327 172.147964,113.259071 
	C166.936142,112.885826 163.051941,118.473244 157.500000,116.000000 
"/>
<path fill="none" opacity="1.000000" stroke="#000000" stroke-linecap="round" stroke-linejoin="round" stroke-width="5.000000"
	d="
M124.000000,137.000000 
	C119.995323,136.722778 115.878281,137.794006 112.005852,135.916183 
	C112.180382,133.328156 113.803177,131.377106 116.043640,130.631042 
	C117.988701,129.983337 118.917496,128.392151 120.446587,127.416306 
	C122.998871,125.787483 124.027061,123.301437 121.977440,120.516609 
	C120.075241,117.932098 116.427834,117.740746 113.520050,120.025520 
	C112.559494,120.780273 111.833321,121.833321 110.999992,122.749992 
"/>
<path fill="none" opacity="1.000000" stroke="#000000" stroke-linecap="round" stroke-linejoin="round" stroke-width="5.000000"
	d="
M139.250000,128.000000 
	C142.620712,122.077942 142.149277,120.644707 137.039139,118.410469 
	C134.769333,117.418060 133.416046,118.666855 132.056473,119.583733 
	C130.501846,120.632126 129.689270,122.719543 127.500000,123.000000 
"/>
<path fill="none" opacity="1.000000" stroke="#000000" stroke-linecap="round" stroke-linejoin="round" stroke-width="5.000000"
	d="
M135.000000,128.000000 
	C138.036194,127.551834 140.505737,128.507324 141.420746,131.524033 
	C142.033630,133.544678 141.758652,135.950516 139.471527,136.933762 
	C137.036835,137.980423 134.375839,139.338760 131.967529,136.527817 
	C131.173660,135.601212 130.000000,135.000000 129.000000,134.250000 
"/>
<path fill="none" opacity="1.000000" stroke="#000000" stroke-linecap="round" stroke-linejoin="round" stroke-width="6.000000"
	d="
M158.500000,87.500000 
	C156.458939,87.584549 154.735504,87.201553 153.332626,89.913422 
	C150.994873,94.432510 146.696854,97.755066 144.500000,102.500000 
"/>
<path fill="none" opacity="1.000000" stroke="#000000" stroke-linecap="round" stroke-linejoin="round" stroke-width="6.000000"
	d="
M124.500000,61.000000 
	C115.470863,61.716782 106.748215,63.383728 98.472244,67.443413 
	C77.981628,77.494858 65.314156,93.830620 61.694656,116.031738 
	C56.313396,149.039062 74.294601,180.309692 108.592796,190.177444 
	C143.383286,200.186859 179.650528,181.486481 190.084213,143.953918 
	C200.090958,107.957138 178.309662,72.072441 141.469604,62.618446 
	C136.189041,61.263329 130.500000,61.500000 125.000000,61.000000 
"/>
<path fill="none" opacity="1.000000" stroke="#000000" stroke-linecap="round" stroke-linejoin="round" stroke-width="6.000000"
	d="
M44.500000,43.000000 
	C41.982677,43.926403 42.511543,46.101597 42.511047,48.000004 
	C42.497276,100.833336 42.497658,153.666672 42.515186,206.500000 
	C42.515572,207.670700 42.742447,208.841339 42.888313,210.250000 
	C98.666664,210.250000 154.333328,210.250000 209.844513,210.250000 
	C210.749954,208.219696 210.493561,206.344040 210.493835,204.500000 
	C210.501526,152.833328 210.500504,101.166664 210.499374,49.500000 
	C210.499237,42.999996 210.495255,43.000000 204.000000,43.000000 
	C151.000000,43.000000 98.000000,43.000000 45.000000,43.000000 
"/>
</svg>