<svg version="1.1" id="Layer_1" xmlns="http://www.w3.org/2000/svg" xmlns:xlink="http://www.w3.org/1999/xlink" x="0px" y="0px"
	 width="100%" viewBox="0 0 251 251" enable-background="new 0 0 251 251" xml:space="preserve">
<path fill="none" opacity="1.000000" stroke="#000000" stroke-linecap="round" stroke-linejoin="round" stroke-width="6.000000"
	d="
M64.750000,183.500000 
	C68.620102,184.896439 72.303284,186.751709 76.069412,188.334885 
	C81.756149,190.725433 88.113159,190.633026 93.425888,187.378998 
	C101.377777,182.508514 108.516563,182.720764 116.602425,187.319916 
	C122.825096,190.859314 129.847046,190.906937 136.522293,187.038467 
	C143.924789,182.748550 151.333588,182.242615 159.050827,186.916077 
	C165.638367,190.905411 172.710464,190.844208 179.479233,186.963776 
	C182.336075,185.326004 185.512695,184.699310 188.500000,183.500000 
"/>
<path fill="none" opacity="1.000000" stroke="#000000" stroke-linecap="round" stroke-linejoin="round" stroke-width="6.000000"
	d="
M188.500000,168.500000 
	C185.260651,169.051208 182.379837,170.525711 179.500443,172.000854 
	C172.832382,175.416977 166.091980,175.864594 159.519424,171.967239 
	C151.769989,167.372040 144.262527,167.430511 136.470413,171.948975 
	C129.947845,175.731308 123.052155,175.731308 116.529587,171.948975 
	C108.737488,167.430496 101.230019,167.372055 93.480583,171.967255 
	C86.908035,175.864609 80.167603,175.417007 73.499550,172.000885 
	C70.620155,170.525726 67.739349,169.051208 64.500000,168.500000 
"/>
<path fill="none" opacity="1.000000" stroke="#000000" stroke-linecap="round" stroke-linejoin="round" stroke-width="7.000000"
	d="
M163.500000,136.500000 
	C165.698288,138.508575 168.412338,137.977280 171.000046,137.991547 
	C176.166565,138.020050 181.339508,138.150681 186.497513,137.939301 
	C189.263809,137.825943 190.526001,138.741592 190.507660,141.500046 
	C190.478836,145.833191 190.478836,150.166809 190.507660,154.499954 
	C190.526001,157.258408 189.253143,158.064621 186.499878,158.058701 
	C146.666733,157.973022 106.833298,157.978592 67.000069,158.042999 
	C64.000717,158.047836 62.832829,156.997940 62.960514,153.998322 
	C63.123394,150.171921 63.166420,146.323929 62.950619,142.502792 
	C62.756245,139.061050 64.066177,137.882431 67.501007,137.941025 
	C77.331482,138.108658 87.166664,138.000000 97.000000,138.000000 
	C116.666664,138.000000 136.333435,137.969254 155.999863,138.038284 
	C158.503174,138.047073 160.815689,137.695435 163.000000,136.500000 
"/>
<path fill="none" opacity="1.000000" stroke="#000000" stroke-linecap="round" stroke-linejoin="round" stroke-width="6.000000"
	d="
M90.750000,166.000000 
	C90.666672,147.166672 90.590401,128.333298 90.495628,109.500023 
	C90.467720,103.954002 86.935745,99.414391 82.000000,98.500008 
	C77.120956,97.596115 72.040169,100.576775 69.992538,105.496895 
	C69.038605,107.789047 69.566376,110.168320 69.530693,112.500473 
	C69.438919,118.499069 69.500000,124.500000 69.500000,130.500000 
"/>
<path fill="none" opacity="1.000000" stroke="#000000" stroke-linecap="round" stroke-linejoin="round" stroke-width="7.000000"
	d="
M119.000000,137.500000 
	C119.000000,128.166672 119.031822,118.833191 118.989273,109.500046 
	C118.958794,102.813751 115.008942,98.667015 109.001526,98.456451 
	C103.815582,98.274673 98.109528,101.491844 98.016418,109.500191 
	C97.936981,116.332603 98.000000,123.166664 98.000000,130.000000 
"/>
<path fill="none" opacity="1.000000" stroke="#000000" stroke-linecap="round" stroke-linejoin="round" stroke-width="7.000000"
	d="
M191.000000,83.000000 
	C171.666672,83.000000 152.333267,83.024094 133.000061,82.973946 
	C130.110443,82.966446 127.992439,83.080452 127.882568,86.996704 
	C127.779686,90.663673 129.265732,91.566032 132.500336,91.531990 
	C141.332687,91.439034 150.166672,91.500000 159.000000,91.500000 
"/>
<path fill="none" opacity="1.000000" stroke="#000000" stroke-linecap="round" stroke-linejoin="round" stroke-width="6.000000"
	d="
M161.500000,94.500000 
	C169.666672,94.500000 177.835373,94.607437 185.999069,94.451508 
	C189.694305,94.380928 191.283417,95.487976 191.085770,99.504219 
	C190.766647,105.988518 190.778458,112.510513 191.086166,118.995911 
	C191.260498,122.670128 189.734985,123.585556 186.499481,123.531227 
	C180.167938,123.424904 173.833328,123.500000 167.500000,123.500000 
"/>
<path fill="none" opacity="1.000000" stroke="#000000" stroke-linecap="round" stroke-linejoin="round" stroke-width="7.000000"
	d="
M191.500000,63.500000 
	C182.666672,63.500000 173.831573,63.602287 165.000839,63.451237 
	C161.306046,63.388035 159.848099,64.501251 159.889496,68.501144 
	C159.965332,75.827156 159.516281,83.227554 159.766006,90.490852 
	C160.133286,101.173737 159.523712,111.838104 159.995163,122.500214 
	C160.031937,123.331924 159.679688,124.696449 160.048645,124.919533 
	C164.655807,127.705063 162.546646,132.184250 163.000000,136.000000 
"/>
<path fill="none" opacity="1.000000" stroke="#000000" stroke-linecap="round" stroke-linejoin="round" stroke-width="6.000000"
	d="
M166.500000,96.000000 
	C166.816116,104.830513 165.817017,113.689690 167.018814,122.497437 
	C167.408539,125.353767 165.268265,126.254456 163.500000,127.500000 
"/>
<path fill="none" opacity="1.000000" stroke="#000000" stroke-linecap="round" stroke-linejoin="round" stroke-width="6.000000"
	d="
M92.000000,148.500000 
	C100.500000,148.500000 109.000000,148.500000 117.500000,148.500000 
"/>
<path fill="none" opacity="1.000000" stroke="#000000" stroke-linecap="round" stroke-linejoin="round" stroke-width="4.000000"
	d="
M192.500000,77.500000 
	C184.166672,77.500000 175.833328,77.500000 167.500000,77.500000 
"/>
<path fill="none" opacity="1.000000" stroke="#000000" stroke-linecap="round" stroke-linejoin="round" stroke-width="4.000000"
	d="
M185.500000,101.500000 
	C185.500000,105.166664 185.500000,108.833336 185.500000,112.500000 
"/>
<path fill="none" opacity="1.000000" stroke="#000000" stroke-linecap="round" stroke-linejoin="round" stroke-width="7.000000"
	d="
M119.000000,138.500000 
	C119.000000,144.833328 119.000000,151.166672 119.000000,157.500000 
"/>
<path fill="none" opacity="1.000000" stroke="#000000" stroke-linecap="round" stroke-linejoin="round" stroke-width="5.000000"
	d="
M181.000000,84.000000 
	C181.000000,87.416664 181.000000,90.833336 181.000000,94.250000 
"/>
<path fill="none" opacity="1.000000" stroke="#000000" stroke-linecap="round" stroke-linejoin="round" stroke-width="5.000000"
	d="
M170.000000,84.000000 
	C170.000000,87.416664 170.000000,90.833336 170.000000,94.250000 
"/>
<path fill="none" opacity="1.000000" stroke="#000000" stroke-linecap="round" stroke-linejoin="round" stroke-width="6.000000"
	d="
M45.500000,42.500000 
	C42.055084,43.146252 43.019382,45.853012 43.018261,48.000011 
	C42.994209,94.000000 43.000000,140.000000 43.000000,186.000000 
	C43.000000,192.666672 43.218895,199.343384 42.913475,205.996033 
	C42.744816,209.669769 44.266956,210.724640 47.500439,210.506485 
	C48.164085,210.461716 48.833332,210.500000 49.500000,210.500000 
	C101.166664,210.500000 152.833328,210.501511 204.500000,210.493820 
	C206.344040,210.493546 208.219696,210.749954 210.250000,209.844513 
	C210.250000,154.333328 210.250000,98.666664 210.250000,42.500000 
	C155.334351,42.500000 100.667175,42.500000 46.000000,42.500000 
"/>
</svg>