<svg version="1.1" id="Layer_1" xmlns="http://www.w3.org/2000/svg" xmlns:xlink="http://www.w3.org/1999/xlink" x="0px" y="0px"
	 width="100%" viewBox="0 0 251 251" enable-background="new 0 0 251 251" xml:space="preserve">
<path fill="none" opacity="1.000000" stroke="#000000" stroke-linecap="round" stroke-linejoin="round" stroke-width="6.000000"
	d="
M76.500000,158.000000 
	C74.298912,153.862946 76.495117,149.218506 74.950798,145.000000 
	C74.833336,145.000000 74.662361,145.024704 74.500610,144.996475 
	C62.666550,142.932907 61.999996,143.465851 62.000000,155.000000 
	C62.000000,162.833328 62.116138,170.669327 61.937355,178.498566 
	C61.874302,181.259827 62.743153,182.594894 65.499649,182.490631 
	C68.668182,182.370758 71.872940,182.919220 75.500000,181.861252 
	C75.500000,176.836243 75.408119,171.665817 75.537827,166.500946 
	C75.605095,163.822495 74.724648,160.986420 76.500000,158.500000 
"/>
<path fill="none" opacity="1.000000" stroke="#000000" stroke-linecap="round" stroke-linejoin="round" stroke-width="6.000000"
	d="
M162.500000,85.500000 
	C158.316559,81.810791 152.863129,82.544731 147.978058,81.615334 
	C136.045319,79.345116 124.001213,77.659027 111.999603,75.752518 
	C103.001617,74.323151 94.003830,72.891479 84.996819,71.520927 
	C83.160553,71.241516 81.674980,71.839485 81.508362,74.000648 
	C80.925781,81.557510 78.991722,88.910332 78.368057,96.489143 
	C77.842537,102.875237 76.266121,109.187668 74.935829,115.486450 
	C74.565048,117.242035 74.208191,118.833336 75.000000,120.500000 
"/>
<path fill="none" opacity="1.000000" stroke="#000000" stroke-linecap="round" stroke-linejoin="round" stroke-width="6.000000"
	d="
M168.500000,83.000000 
	C164.824753,84.180679 162.349548,86.395134 160.372314,89.928551 
	C156.893265,96.145775 150.911896,100.487320 146.918213,106.445183 
	C144.609558,109.889305 140.898895,107.490799 138.015472,107.127258 
	C127.975449,105.861404 117.989723,104.145058 108.002960,102.482216 
	C98.489212,100.898132 89.000000,99.166664 79.500000,97.500000 
"/>
<path fill="none" opacity="1.000000" stroke="#000000" stroke-linecap="round" stroke-linejoin="round" stroke-width="6.000000"
	d="
M143.500000,143.000000 
	C139.666168,144.505539 136.141327,142.359085 132.518860,141.862457 
	C128.761536,141.347366 126.630463,141.771896 124.331429,145.392975 
	C119.556267,152.914032 113.810638,159.816635 108.515709,167.011551 
	C107.167145,168.844025 105.311165,168.496399 103.500000,168.497498 
	C94.500000,168.502975 85.500000,168.500000 76.500000,168.500000 
"/>
<path fill="none" opacity="1.000000" stroke="#000000" stroke-linecap="round" stroke-linejoin="round" stroke-width="7.000000"
	d="
M114.000000,141.000000 
	C111.278656,146.255402 107.230949,150.597763 104.020660,155.513489 
	C102.533897,157.790070 100.489754,158.092148 97.999146,158.045593 
	C91.001595,157.914856 84.000000,158.000000 77.000000,158.000000 
"/>
<path fill="none" opacity="1.000000" stroke="#000000" stroke-linecap="round" stroke-linejoin="round" stroke-width="6.000000"
	d="
M72.500000,122.500000 
	C76.396942,119.657150 80.219856,122.649384 83.984520,122.946281 
	C91.370499,123.528770 98.662460,125.275314 106.000938,126.494370 
	C118.664230,128.597992 131.323273,130.730438 144.003265,132.729263 
	C153.653458,134.250458 163.327225,135.627396 173.004532,136.967224 
	C175.260941,137.279633 178.105957,133.975342 177.954346,131.002335 
	C177.570801,123.482246 179.668610,116.300728 180.896271,109.024681 
	C181.336884,106.413155 181.780228,104.028786 181.000000,101.500000 
"/>
<path fill="none" opacity="1.000000" stroke="#000000" stroke-linecap="round" stroke-linejoin="round" stroke-width="6.000000"
	d="
M158.000000,95.500000 
	C159.605637,98.513939 162.627884,97.174187 165.008347,97.713120 
	C170.314941,98.914536 175.660126,99.951721 181.009140,100.951057 
	C181.608200,101.062973 182.333328,100.500000 183.000000,100.250000 
"/>
<path fill="none" opacity="1.000000" stroke="#000000" stroke-linecap="round" stroke-linejoin="round" stroke-width="6.000000"
	d="
M190.500000,108.750000 
	C188.509094,114.155861 188.364670,119.914062 187.667297,125.520805 
	C187.320267,128.310822 184.629181,130.957474 186.750000,134.000000 
"/>
<path fill="none" opacity="1.000000" stroke="#000000" stroke-linecap="round" stroke-linejoin="round" stroke-width="6.000000"
	d="
M111.000000,128.500000 
	C109.557777,131.028061 111.597603,133.991364 109.495552,136.486710 
	C112.037773,139.104141 114.557388,140.217239 118.003387,140.120193 
	C120.585297,140.047485 123.568161,139.962189 125.500000,142.500000 
"/>
<path fill="none" opacity="1.000000" stroke="#000000" stroke-linecap="round" stroke-linejoin="round" stroke-width="6.000000"
	d="
M146.000000,134.000000 
	C144.942368,137.760605 143.557892,141.478561 144.500000,145.500000 
"/>
<path fill="none" opacity="1.000000" stroke="#000000" stroke-linecap="round" stroke-linejoin="round" stroke-width="7.000000"
	d="
M44.500000,43.000000 
	C41.428780,43.547722 42.008816,45.943470 42.007133,48.000008 
	C41.994171,63.833328 42.000000,79.666664 42.000000,95.500000 
	C42.000000,132.000000 41.999092,168.500000 42.000988,205.000000 
	C42.001270,210.448990 42.007359,210.492126 47.500000,210.493301 
	C99.833336,210.504532 152.166672,210.504517 204.500000,210.493286 
	C209.992661,210.492111 209.998856,210.448990 209.999039,205.000000 
	C210.000641,153.000000 210.000778,101.000000 209.998932,49.000000 
	C209.998718,43.008091 209.991898,43.001278 204.000000,43.001068 
	C151.000000,42.999229 98.000000,43.000000 45.000000,43.000000 
"/>
</svg>