<svg version="1.1" id="Layer_1" xmlns="http://www.w3.org/2000/svg" xmlns:xlink="http://www.w3.org/1999/xlink" x="0px" y="0px"
	 width="100%" viewBox="0 0 251 251" enable-background="new 0 0 251 251" xml:space="preserve">
<path fill="none" opacity="1.000000" stroke="#000000" stroke-linecap="round" stroke-linejoin="round" stroke-width="5.000000"
	d="
M159.000000,102.000000 
	C160.142960,96.120438 155.993561,90.866219 156.972168,84.995361 
	C157.021729,84.698067 156.745605,84.129562 156.488403,84.029930 
	C150.716949,81.794220 153.696594,76.810684 153.030090,72.994743 
	C152.882950,72.152306 153.098007,71.247063 151.781128,70.250000 
	C148.500000,70.250000 144.500000,70.250000 140.000000,70.250000 
	C140.000000,74.487305 140.000000,78.493652 140.000000,82.500000 
	C140.000000,92.333336 140.008133,102.166679 139.992676,111.999985 
	C139.989822,113.820419 140.511017,115.963272 137.500366,116.019516 
	C134.831879,116.069351 134.849457,114.277298 135.030457,112.503105 
	C135.227325,110.573418 134.265625,109.086983 133.367874,107.310722 
	C129.281326,109.323814 124.938103,109.528709 120.498077,108.500427 
	C119.332253,105.438766 120.788712,101.989487 119.027084,98.984123 
	C118.202194,97.576874 118.079079,95.342522 116.925423,94.618889 
	C112.890320,92.087837 110.330681,88.971222 110.418564,83.998558 
	C110.424988,83.634819 109.529480,82.215408 108.500000,83.500000 
"/>
<path fill="none" opacity="1.000000" stroke="#000000" stroke-linecap="round" stroke-linejoin="round" stroke-width="5.000000"
	d="
M195.000000,114.000000 
	C195.000000,104.333336 195.230118,94.658783 194.899399,85.003448 
	C194.742615,80.426216 197.160629,75.075417 192.000000,71.500000 
	C192.713882,67.220108 189.961975,64.254280 187.982452,61.010708 
	C187.430984,60.107071 186.833374,59.003502 185.966873,58.565556 
	C183.870377,57.505959 181.332901,57.170994 180.085999,59.545162 
	C178.220123,63.097900 176.651642,67.034302 174.672470,70.301598 
	C171.823990,75.004013 172.286224,79.738220 171.961594,84.384338 
	C170.166656,84.833267 168.833344,85.166733 167.266266,85.558678 
	C167.090729,87.827179 166.909225,90.172813 166.736130,92.409813 
	C164.185669,93.386543 161.256531,92.551605 159.500000,95.000000 
"/>
<path fill="none" opacity="1.000000" stroke="#000000" stroke-linecap="round" stroke-linejoin="round" stroke-width="6.000000"
	d="
M110.000000,176.500000 
	C110.364296,177.414764 110.465912,178.867813 111.504211,178.934479 
	C117.376022,179.311554 121.720390,183.658035 127.462410,184.705963 
	C132.098038,185.551956 136.252991,185.086777 139.942703,182.903183 
	C148.786652,177.669250 157.292435,177.714798 166.016449,182.972717 
	C170.706619,185.799454 176.020981,185.851532 180.954819,184.351395 
	C185.559479,182.951370 189.515793,179.687637 194.491974,178.946121 
	C195.555695,178.787613 195.635712,177.414764 196.000000,176.500000 
"/>
<path fill="none" opacity="1.000000" stroke="#000000" stroke-linecap="round" stroke-linejoin="round" stroke-width="6.000000"
	d="
M194.500000,167.500000 
	C190.882233,167.071487 187.933182,168.898438 185.019653,170.534988 
	C177.857269,174.558228 171.080399,174.214966 163.948013,170.089905 
	C156.851990,165.985840 149.154678,165.956909 142.050156,170.086304 
	C134.925827,174.227264 128.142746,174.558212 120.980339,170.535004 
	C118.066826,168.898438 115.115898,167.077438 111.500000,167.500000 
"/>
<path fill="none" opacity="1.000000" stroke="#000000" stroke-linecap="round" stroke-linejoin="round" stroke-width="6.000000"
	d="
M101.500000,178.500000 
	C86.833336,178.500000 72.166664,178.500000 57.500000,178.500000 
"/>
<path fill="none" opacity="1.000000" stroke="#000000" stroke-linecap="round" stroke-linejoin="round" stroke-width="5.000000"
	d="
M58.500000,73.000000 
	C57.462910,75.218239 56.905109,77.481071 56.952614,80.000893 
	C57.087685,87.165009 57.042423,94.333733 56.975315,101.499771 
	C56.953930,103.783195 57.133152,105.900063 59.000000,107.500000 
"/>
<path fill="none" opacity="1.000000" stroke="#000000" stroke-linecap="round" stroke-linejoin="round" stroke-width="5.000000"
	d="
M95.500000,112.500000 
	C84.035469,111.184219 72.429764,113.115479 61.000000,111.000000 
"/>
<path fill="none" opacity="1.000000" stroke="#000000" stroke-linecap="round" stroke-linejoin="round" stroke-width="11.000000"
	d="
M76.500008,79.000000 
	C72.000008,87.000000 67.804108,95.192574 62.900059,102.936707 
	C59.232368,108.728455 60.290024,114.889214 60.029263,121.001251 
	C59.921562,123.525665 62.819378,124.204727 63.612000,126.460648 
	C65.239105,131.091660 67.919304,135.368988 69.378098,140.038086 
	C70.744850,144.412582 73.387817,145.769241 77.500000,145.500000 
"/>
<path fill="none" opacity="1.000000" stroke="#000000" stroke-linecap="round" stroke-linejoin="round" stroke-width="7.000000"
	d="
M173.000000,105.000000 
	C173.000000,125.000000 173.000000,145.000000 173.000000,165.000000 
"/>
<path fill="none" opacity="1.000000" stroke="#000000" stroke-linecap="round" stroke-linejoin="round" stroke-width="5.000000"
	d="
M91.000000,130.500000 
	C83.954994,129.043793 78.491547,124.512947 72.491425,121.014709 
	C68.953270,118.951866 65.435051,116.689590 61.000000,117.500000 
"/>
<path fill="none" opacity="1.000000" stroke="#000000" stroke-linecap="round" stroke-linejoin="round" stroke-width="6.000000"
	d="
M57.500000,167.500000 
	C72.166664,167.500000 86.833336,167.500000 101.500000,167.500000 
"/>
<path fill="none" opacity="1.000000" stroke="#000000" stroke-linecap="round" stroke-linejoin="round" stroke-width="5.000000"
	d="
M59.000000,123.500000 
	C57.133152,125.099937 56.932365,127.215912 56.976036,129.500458 
	C57.058838,133.832199 56.995548,138.166672 57.001812,142.500000 
	C57.005108,144.778931 56.741020,147.077606 58.476383,149.021088 
	C59.712955,150.405960 58.871246,151.754745 58.000000,153.000000 
"/>
<path fill="none" opacity="1.000000" stroke="#000000" stroke-linecap="round" stroke-linejoin="round" stroke-width="5.000000"
	d="
M88.500000,94.000000 
	C80.315979,99.836586 71.267403,104.174606 62.500000,109.000000 
"/>
<path fill="none" opacity="1.000000" stroke="#000000" stroke-linecap="round" stroke-linejoin="round" stroke-width="6.000000"
	d="
M91.000000,92.000000 
	C93.826111,96.781670 94.982941,101.940132 95.649063,107.482086 
	C96.639473,115.722092 95.183220,123.193771 91.546364,130.523010 
	C88.521118,136.619690 83.638634,140.888657 78.500000,145.000000 
"/>
<path fill="none" opacity="1.000000" stroke="#000000" stroke-linecap="round" stroke-linejoin="round" stroke-width="8.000000"
	d="
M150.500000,125.500000 
	C149.166672,124.668716 147.242752,125.089188 146.593567,125.615433 
	C141.465683,129.772186 134.965424,132.493729 132.000000,139.000000 
"/>
<path fill="none" opacity="1.000000" stroke="#000000" stroke-linecap="round" stroke-linejoin="round" stroke-width="8.000000"
	d="
M188.000000,142.000000 
	C189.000000,141.000000 190.153549,140.110535 190.969040,138.977707 
	C192.850098,136.364700 197.188431,135.361572 195.603699,130.466431 
	C193.737106,124.700577 191.434784,119.898544 184.500000,119.500000 
"/>
<path fill="none" opacity="1.000000" stroke="#000000" stroke-linecap="round" stroke-linejoin="round" stroke-width="8.000000"
	d="
M118.500000,140.500000 
	C122.000000,140.166656 125.495148,139.757751 129.002090,139.532471 
	C130.707703,139.422882 132.324722,139.540024 134.040009,140.422226 
	C139.794037,143.381653 145.409088,147.212830 152.518066,144.548187 
	C154.812531,143.688171 157.048767,145.394989 158.914597,146.198334 
	C162.853363,147.894226 166.710373,148.029007 170.460876,146.873062 
	C173.587952,145.909271 176.137070,147.605637 179.000870,147.535660 
	C184.164459,147.409500 189.333328,147.500000 194.500000,147.500000 
"/>
<path fill="none" opacity="1.000000" stroke="#000000" stroke-linecap="round" stroke-linejoin="round" stroke-width="6.000000"
	d="
M58.500000,71.500000 
	C60.226959,74.652458 63.515388,73.270912 66.025932,73.895828 
	C76.179688,76.423241 83.939186,82.179359 90.000000,90.500000 
"/>
<path fill="none" opacity="1.000000" stroke="#000000" stroke-linecap="round" stroke-linejoin="round" stroke-width="8.000000"
	d="
M186.500000,146.000000 
	C187.206070,142.953827 184.819794,140.562836 184.877090,137.497696 
	C184.979767,132.005859 184.293655,126.501984 184.018600,120.999069 
	C183.900574,118.637543 178.286377,111.671165 175.505661,110.486710 
	C171.192291,108.649429 168.087967,110.941772 166.140121,114.086784 
	C164.219482,117.187859 161.894089,118.565002 158.563599,119.688530 
	C155.911819,120.583084 153.827194,123.158821 152.074097,124.531502 
	C150.597549,125.666664 151.820282,126.271332 151.525604,127.010216 
	C149.808365,131.315872 150.465103,135.422379 152.430176,139.533371 
	C153.044830,140.819229 152.833328,142.500000 153.000000,144.000000 
"/>
<path fill="none" opacity="1.000000" stroke="#000000" stroke-linecap="round" stroke-linejoin="round" stroke-width="6.000000"
	d="
M69.500000,150.000000 
	C71.000000,155.333328 72.500000,160.666672 74.000000,166.000000 
"/>
<path fill="none" opacity="1.000000" stroke="#000000" stroke-linecap="round" stroke-linejoin="round" stroke-width="5.000000"
	d="
M162.500000,119.500000 
	C163.428818,120.180908 163.198227,121.304909 162.944458,121.979095 
	C159.673920,130.668106 165.345337,136.145798 170.000000,142.000000 
"/>
<path fill="none" opacity="1.000000" stroke="#000000" stroke-linecap="round" stroke-linejoin="round" stroke-width="4.000000"
	d="
M195.500000,136.000000 
	C196.989655,139.578873 197.455582,143.108994 195.000000,146.500000 
"/>
<path fill="none" opacity="1.000000" stroke="#000000" stroke-linecap="round" stroke-linejoin="round" stroke-width="4.000000"
	d="
M183.500000,134.000000 
	C181.322083,134.570679 179.832275,136.448212 179.174316,138.070694 
	C178.198135,140.477814 176.303574,141.008194 174.500000,142.000000 
"/>
<path fill="none" opacity="1.000000" stroke="#000000" stroke-linecap="round" stroke-linejoin="round" stroke-width="4.000000"
	d="
M162.500000,134.000000 
	C160.197525,136.966049 162.962128,141.198868 160.000000,144.000000 
"/>
<path fill="none" opacity="1.000000" stroke="#000000" stroke-linecap="round" stroke-linejoin="round" stroke-width="6.000000"
	d="
M71.500000,145.000000 
	C69.544693,151.294479 64.341110,150.501816 59.500000,150.500000 
"/>
<path fill="none" opacity="1.000000" stroke="#000000" stroke-linecap="round" stroke-linejoin="round" stroke-width="6.000000"
	d="
M44.500000,42.500000 
	C41.501453,43.485378 42.542610,46.037365 42.539848,48.000057 
	C42.486141,86.166641 42.500000,124.333336 42.500000,162.500000 
	C42.500000,176.500000 42.494625,190.500000 42.506493,204.500000 
	C42.508057,206.344070 42.250053,208.219696 43.030434,209.969574 
	C44.780308,210.749954 46.655949,210.493561 48.500000,210.493835 
	C100.166664,210.501526 151.833328,210.500488 203.500000,210.499359 
	C210.000000,210.499222 210.000000,210.495270 210.000000,204.000000 
	C210.000000,152.166672 210.000000,100.333336 210.000000,48.500000 
	C210.000000,42.520622 210.000000,42.503246 204.000000,42.502716 
	C151.000000,42.498032 98.000000,42.500000 45.000000,42.500000 
"/>
</svg>