<svg version="1.1" id="Layer_1" xmlns="http://www.w3.org/2000/svg" xmlns:xlink="http://www.w3.org/1999/xlink" x="0px" y="0px"
	 width="100%" viewBox="0 0 251 251" enable-background="new 0 0 251 251" xml:space="preserve">
<path fill="none" opacity="1.000000" stroke="#000000" stroke-linecap="round" stroke-linejoin="round" stroke-width="6.000000"
	d="
M58.500000,103.500000 
	C59.575924,103.454323 60.127396,103.735382 60.565800,104.976761 
	C62.463184,110.349434 67.502411,111.825066 71.446609,107.945717 
	C76.329201,103.143379 81.654869,99.027260 87.491653,95.486244 
	C102.327477,86.485748 118.646698,83.831284 135.481369,85.670547 
	C151.668045,87.439018 166.136154,93.940849 177.998322,105.501724 
	C179.011017,106.488693 179.911362,107.613403 181.017288,108.477882 
	C183.876831,110.713142 188.250336,110.440918 190.500000,108.000008 
	C193.071854,105.209549 193.026810,101.718697 189.974213,98.524651 
	C182.129272,90.316223 172.824066,84.123573 162.489807,79.522888 
	C147.170593,72.702972 130.985733,70.501785 114.519104,72.646667 
	C97.595459,74.851074 82.126984,81.201714 69.005035,92.505844 
	C65.367439,95.639511 60.582996,97.855789 60.000000,103.500000 
"/>
<path fill="none" opacity="1.000000" stroke="#000000" stroke-linecap="round" stroke-linejoin="round" stroke-width="6.000000"
	d="
M125.000000,125.250000 
	C114.898987,125.389244 106.170143,129.013000 98.481262,135.477707 
	C94.537636,138.793457 93.427216,141.926163 95.499992,145.000000 
	C98.415642,149.323761 102.228394,149.690796 106.495300,145.994568 
	C112.243080,141.015549 118.693924,138.247147 126.501762,138.420517 
	C133.625015,138.578720 139.701111,140.748566 145.025909,145.470779 
	C149.322159,149.280838 152.463242,149.455292 155.500015,146.500015 
	C158.099670,143.970093 158.477737,140.156631 155.966354,137.532196 
	C149.042480,130.296585 140.436584,126.448112 130.500107,125.498962 
	C128.832718,125.339684 127.166664,125.166664 125.500000,125.000000 
"/>
<path fill="none" opacity="1.000000" stroke="#000000" stroke-linecap="round" stroke-linejoin="round" stroke-width="6.000000"
	d="
M44.500000,42.500000 
	C41.501453,43.485378 42.542610,46.037365 42.539848,48.000057 
	C42.486141,86.166641 42.500000,124.333336 42.500000,162.500000 
	C42.500000,176.500000 42.494625,190.500000 42.506493,204.500000 
	C42.508057,206.344070 42.250053,208.219696 43.030434,209.969574 
	C44.780308,210.749954 46.655949,210.493561 48.500000,210.493835 
	C100.166664,210.501526 151.833328,210.500488 203.500000,210.499359 
	C210.000000,210.499222 210.000000,210.495270 210.000000,204.000000 
	C210.000000,152.166672 210.000000,100.333336 210.000000,48.500000 
	C210.000000,42.520622 210.000000,42.503246 204.000000,42.502716 
	C151.000000,42.498032 98.000000,42.500000 45.000000,42.500000 
"/>
<path fill="none" opacity="1.000000" stroke="#000000" stroke-linecap="round" stroke-linejoin="round" stroke-width="6.000000"
	d="
M118.500000,99.500000 
	C107.581192,101.588303 97.061485,104.632309 87.974052,111.465492 
	C84.743416,113.894722 81.249931,116.006081 78.525848,119.023338 
	C75.720322,122.130814 75.810921,125.168373 78.500008,127.999992 
	C81.539276,131.200348 84.842094,131.624435 87.945068,128.446365 
	C94.965080,121.256378 103.303703,116.637520 112.997276,114.238983 
	C130.648422,109.871437 146.412109,113.703781 160.500198,124.999756 
	C162.165390,126.334930 163.799164,127.712357 165.507568,128.989868 
	C168.464203,131.200775 171.773071,130.980881 174.000000,128.500000 
	C176.024551,126.244583 176.166840,121.851570 173.974854,119.523682 
	C165.445312,110.465324 154.840302,104.908493 143.000778,101.497307 
	C135.131256,99.229965 127.066254,99.371651 119.000000,99.500000 
"/>
<path fill="none" opacity="1.000000" stroke="#000000" stroke-linecap="round" stroke-linejoin="round" stroke-width="6.000000"
	d="
M123.500000,153.500000 
	C114.016808,157.594543 111.426521,166.305084 117.453110,173.041946 
	C121.021622,177.031021 125.319031,177.871002 129.969818,176.404297 
	C134.339188,175.026337 137.207367,171.810959 137.741867,166.999100 
	C138.281448,162.141479 136.699051,158.413696 132.576111,155.396011 
	C129.794083,153.359756 126.975250,153.563522 124.000000,153.500000 
"/>
</svg>